<?xml version="1.0" encoding="UTF-8"?>
<svg id="_图层_1" data-name="图层 1" xmlns="http://www.w3.org/2000/svg" viewBox="0 0 205.88 200.62">
  <defs>
    <style>
      .cls-1 {
        fill-rule: evenodd;
      }
    </style>
  </defs>
  <path class="cls-1" d="M58.18,79.87c14.39,4.24,8.1,10.21,4.07,13.7-7.02,6.85-13.87,16.26-21.58,26.6-7.75,10.41-13.72,20.35-18.29,29.08,18.43-4.57,15.85,10.32,24.75,18,5.12-3.5,10.25-7,15.38-10.5,16.94-10.69,30.7-22.38,45.75-34.5,7.63-6.14,12.29-15.06,20.25-21,.75.38,1.5.75,2.25,1.12,1.56,14.3-27,29.54-33.75,39.38-1,3.75-2,7.5-3,11.25-4.38,14.8-6.31,31.27-9.75,47.62h-7.88c2.24-18.58,7.83-35.37,10.88-52.12-18.02,10.78-34.29,26.81-55.12,34.88-9.74,3.77-24.17,3.33-27.75-6-4.37-11.4,5.2-24.45,9.38-30.75,7.58-11.45,12.94-19.04,31.5-41.62,6.36-7.74,11.47-14,14.53-17.75.11-.11.3-.32.33-.62.06-.5-.31-1.04-.93-1.29-1.67-.7-3.35-1.41-5.02-2.11-1.11-.87-2.6-2.33-3.06-4.43-1.19-5.48,5.92-7.94,8.77-15.8,2.53-6.96-3.06-15.04.75-21,5.32-8.31,11.91-5.91,20.25-10.5,10.96-6.03,11.78-8.8,23.62-11.62,6.05-1.45,11.12-1.25,12.34-1.19,2.64.13,4.83.49,6.41.81,2.45-.11,6.5.03,11.05,1.78,2.2.85,3.96,2.04,7.23,4.14,2.58,1.65,4.66,3.14,6.1,4.21,10.54-2.45,16.46-.37,19.88,1.88,13.76,9.02,14.46,25.45,20.62,41.62,2.72,7.13,16.43,6.47,14.25,12.75-3.69,7.81-13.67,5.91-16.5,11.25-.68,3.35.99,6.21,1.5,9.38,1.04,6.49-3.69,14.08-7.12,16.5-6.16,4.33-13.46-.82-14.7-5.69-1.03-4.07,1.08-12.24-2.71-13.66-3.36-1.26-7.76-.15-7.64,1.34-1.45,13.45,3.75,40.84,10.86,58.82.51,1.29,2.63,6.54,5.57,13.2,4.38,9.94,8.37,18.02,11.25,23.62h-8.25c-4.73-10.3-10.55-19.46-13.88-31.12,0,0-7.57-20.8-10.79-62.15-.07-.89-.02-1.57.24-2.26.73-1.92,2.42-2.14,2.41-3.21-.02-1.09-1.77-1.23-2.9-3.1,0,0-.7-1.14-.8-3.17-.15-2.93,1.94-16.35,5.48-34.49,1.26-1.12,1.62-1.05,3-.38,3.91,13.22-6.11,23.74-1.88,36,4.03,1.98,10,.2,12.63,3.56,1.5,1.92,1.3,10.4,4.25,14.44,2.12,1.89,3.61,1.78,4.12,1.7,2.94-.48,5.48-5.43,5.04-12.5-1.99-4.34-1.47-9.42,1.38-13.18,4.2-5.57,11.05-5.08,11.46-5.04-1.89-.92-3.78-1.83-5.68-2.75-2.1-2.74-5.32-7.3-8.31-13.42-7.53-15.37-5.65-24.22-12.14-29.43-3.37-2.71-9.79-5.07-23.25-1.12-4.52-3.35-14.03-9.61-25.88-11.62-3.39-.58-8.11-1.33-13.88,0-3.72.86-6.72,2.32-9.14,3.5-4.3,2.09-7.12,3.63-8.44,4.32-2.09,1.1-4.13,1.49-6.31,2.33-5.38,2.08-8.12,3.09-13.3,4.97-5.83,3.06,1.5,12.79-1.06,21.25-1.54,5.08-6.85,7.89-9.03,11.05-3.56,5.15.06,4.9.2,5.07M72.81,77.41c-13.65-21.94,25.7-42.66,33.69-17.03,4.07,13.04-6.44,21.67-16.12,23.25-3.15.51-13.44-.31-17.57-6.22M88.83,53.75c3.89.06,8.76,2.08,10.84,6.91,2.65,6.17-1.41,11.94-1.78,12.44-3.13,4.28-8.27,5.69-12.51,4.96-1.09-.19-7.4-1.41-9.42-7.09-1.79-5.03,1.16-9.66,1.88-10.8.51-.8,4.29-6.52,10.99-6.42Z"/>
  <path class="cls-1" d="M86.25,60.38c.48-.16,3.67-1.15,6.26.68.77.54,1.28,1.19,1.62,1.74.21.64.82,2.76-.09,5.18-.7,1.85-1.94,2.93-2.51,3.37-2.85.83-5.81.06-7.53-1.96-1.48-1.75-1.52-3.83-1.5-4.49,1.01-2.32,2.03-3,3.75-4.5Z"/>
  <path class="cls-1" d="M141.82,53.96c-7.61-5.6-16.99-1.45-17.89-1.03-1.24.57-7.24,3.35-9.4,9.86-2.49,7.48.97,17.2,9.06,20.98,8.81,4.11,19.47-.54,23.27-8.94,3.17-7,1.36-16.15-5.04-20.87ZM142.24,70.13c-1.13,3.98-7.59,8.73-11.17,8.94-5.35.32-10.15-1.41-12.14-10.55-.74-3.38-.39-6.84,4.55-10.32,6.16-4.34,11.69-3.07,15.94.23,2.78,2.16,3.71,8.6,2.83,11.69Z"/>
  <path class="cls-1" d="M129.12,61.68c-.62.27-3.4,1.45-3.92,4.17-.48,2.53,1.25,5.09,3.56,6.12,2.8,1.24,5.88-.02,7.55-1.88,1.57-1.74,2.6-4.79,1.14-7.02-1.74-2.66-5.91-2.42-8.33-1.39Z"/>
</svg>